{"title":"MasterChef.Australia.s03e08.PDTV.XviD-BF1.avi","uid":6378667,"size":523187684,"categoryP":"video","categoryS":"tv_shows","magnet":"?xt=urn:btih:379db1ed19f44c4fb0a0915eb32ddfc21eb67cf8&amp;dn=MasterChef.Australia.s03e08.PDTV.XviD-BF1.avi&amp;tr=udp%3A%2F%2Ftracker.openbittorrent.com%3A80&amp;tr=udp%3A%2F%2Fopen.demonii.com%3A1337&amp;tr=udp%3A%2F%2Ftracker.coppersurfer.tk%3A6969&amp;tr=udp%3A%2F%2Fexodus.desync.com%3A6969","seeders":1,"leechers":0,"uploader":"bigfish5","files":1,"time":1304949921,"description":"MasterChef Australia Series 3 Episode 7\n\nAs our Top 24 enter the MasterChef kitchen for the first time, they are surprised to see no judges. Only a few notice the clock has started ticking down. Has the first challenge already begun?\n\nEnjoy!\n\nGeneral\nComplete name                    : K:\\Torrents\\MasterChef\\MasterChef.Australia.s03e08.PDTV.XviD-BF1.avi\nFormat                           : AVI\nFormat/Info                      : Audio Video Interleave\nFile size                        : 499 MiB\nDuration                         : 42mn 27s\nOverall bit rate                 : 1 643 Kbps\n\nVideo\nID                               : 0\nFormat                           : MPEG-4 Visual\nFormat profile                   : Advanced Simple@L5\nFormat settings, BVOP            : Yes\nFormat settings, QPel            : No\nFormat settings, GMC             : No warppoints\nFormat settings, Matrix          : Default (H.263)\nCodec ID                         : XVID\nCodec ID/Hint                    : XviD\nDuration                         : 42mn 27s\nBit rate                         : 1 385 Kbps\nWidth                            : 640 pixels\nHeight                           : 352 pixels\nDisplay aspect ratio             : 16:9\nFrame rate                       : 25.000 fps\nResolution                       : 8 bits\nColorimetry                      : 4:2:0\nScan type                        : Progressive\nBits/(Pixel*Frame)               : 0.246\nStream size                      : 421 MiB (84%)\nWriting library                  : XviD 1.2.1 (UTC 2008-12-04)\n\nAudio\nID                               : 1\nFormat                           : MPEG Audio\nFormat version                   : Version 1\nFormat profile                   : Layer 3\nMode                             : Joint stereo\nCodec ID                         : 55\nCodec ID/Hint                    : MP3\nDuration                         : 42mn 27s\nBit rate mode                    : Variable\nBit rate                         : 245 Kbps\nMinimum bit rate                 : 32.0 Kbps\nChannel(s)                       : 2 channels\nSampling rate                    : 48.0 KHz\nStream size                      : 74.4 MiB (15%)\n\n","torrent":{"xt":"urn:btih:379db1ed19f44c4fb0a0915eb32ddfc21eb67cf8","amp;dn":"MasterChef.Australia.s03e08.PDTV.XviD-BF1.avi","amp;tr":["udp%3A%2F%2Ftracker.openbittorrent.com%3A80","udp%3A%2F%2Fopen.demonii.com%3A1337","udp%3A%2F%2Ftracker.coppersurfer.tk%3A6969","udp%3A%2F%2Fexodus.desync.com%3A6969"],"infoHash":"379db1ed19f44c4fb0a0915eb32ddfc21eb67cf8","infoHashBuffer":{"type":"Buffer","data":[55,157,177,237,25,244,76,79,176,160,145,94,179,45,223,194,30,182,124,248]},"announce":[],"urlList":[]}}